<svg id="Layer_1" data-name="Layer 1" xmlns="http://www.w3.org/2000/svg" viewBox="0 0 182.34 31.67"><defs><style>.cls-1{fill:#fff;}.cls-2{fill:#d30e47;stroke:#d30e47;stroke-miterlimit:10;}</style></defs><title>enusec white transparent</title><path class="cls-1" d="M17,5.06a.48.48,0,0,1-.34.14H5.88a.18.18,0,0,0-.2.16v6.33a.18.18,0,0,0,.16.2h6.77a.47.47,0,0,1,.48.48v3.91a.47.47,0,0,1-.48.48H5.88a.18.18,0,0,0-.2.16v6.53a.18.18,0,0,0,.16.2H16.68a.47.47,0,0,1,.48.48V28a.47.47,0,0,1-.48.48H.48A.48.48,0,0,1,0,28V.81A.5.5,0,0,1,.14.46.48.48,0,0,1,.48.32h16.2a.47.47,0,0,1,.48.48V4.71A.48.48,0,0,1,17,5.06Z" transform="translate(0 0.01)"/><path class="cls-1" d="M20.73,28.39a.48.48,0,0,1-.14-.34V.81a.48.48,0,0,1,.48-.48h4.75a.58.58,0,0,1,.56.36l7.74,16.08c.05.08.11.11.16.1s.08-.07.08-.18V.81a.48.48,0,0,1,.48-.48h4.67a.48.48,0,0,1,.34.14A.49.49,0,0,1,40,.81V28a.47.47,0,0,1-.48.48h-4.8a.62.62,0,0,1-.56-.36L26.39,12c-.05-.08-.11-.11-.16-.1s-.08.07-.08.18l.08,16a.47.47,0,0,1-.48.48H21.07A.45.45,0,0,1,20.73,28.39Z" transform="translate(0 0.01)"/><path class="cls-1" d="M48.39,27.72a8,8,0,0,1-3.24-3.16A9.37,9.37,0,0,1,44,19.87V.81a.48.48,0,0,1,.48-.48H49.2a.48.48,0,0,1,.48.48V20.15a3.94,3.94,0,0,0,1,2.78,3.69,3.69,0,0,0,5.16,0,3.94,3.94,0,0,0,1-2.78V.81a.48.48,0,0,1,.48-.48H62a.47.47,0,0,1,.48.48V19.87a9.37,9.37,0,0,1-1.15,4.69,8,8,0,0,1-3.24,3.16,11,11,0,0,1-9.67,0Z" transform="translate(0 0.01)"/><path class="cls-1" d="M70.17,27.86A7.47,7.47,0,0,1,65.84,21V19.87a.47.47,0,0,1,.48-.48H71a.47.47,0,0,1,.48.48h0v.81a3,3,0,0,0,1,2.36,4,4,0,0,0,2.74.95,3.29,3.29,0,0,0,2.4-.81,2.74,2.74,0,0,0,.82-2.06,2.47,2.47,0,0,0-.52-1.59,5.52,5.52,0,0,0-1.47-1.25c-.63-.39-1.61-.92-2.92-1.59a33.57,33.57,0,0,1-4-2.26A9.62,9.62,0,0,1,67,11.73a7.14,7.14,0,0,1-1.09-4A7.07,7.07,0,0,1,68.3,2.1,9.38,9.38,0,0,1,74.67,0a10.71,10.71,0,0,1,4.79,1,7.68,7.68,0,0,1,4.43,7.15V9a.47.47,0,0,1-.48.48H78.78A.47.47,0,0,1,78.29,9h0V8.26a3.25,3.25,0,0,0-1-2.42,3.74,3.74,0,0,0-2.7-1,3.25,3.25,0,0,0-2.28.74,2.67,2.67,0,0,0-.83,2.08A2.72,2.72,0,0,0,72,9.31a4.93,4.93,0,0,0,1.49,1.31c.67.42,1.67,1,3,1.63l.89.48A41.34,41.34,0,0,1,81,15a8.33,8.33,0,0,1,2.2,2.38,6.49,6.49,0,0,1,.89,3.49,7.31,7.31,0,0,1-2.5,5.8A9.73,9.73,0,0,1,75,28.85,11,11,0,0,1,70.17,27.86Z" transform="translate(0 0.01)"/><path class="cls-1" d="M104.47,5.06a.48.48,0,0,1-.34.14H93.32a.18.18,0,0,0-.2.16v6.33a.18.18,0,0,0,.16.2h6.77a.47.47,0,0,1,.48.48h0v3.91a.47.47,0,0,1-.48.48H93.32a.18.18,0,0,0-.2.16v6.53a.18.18,0,0,0,.16.2h10.84a.47.47,0,0,1,.48.48h0V28a.47.47,0,0,1-.48.48H87.92a.47.47,0,0,1-.48-.48h0V.81a.48.48,0,0,1,.48-.48h16.2a.48.48,0,0,1,.48.48v3.9A.45.45,0,0,1,104.47,5.06Z" transform="translate(0 0.01)"/><path class="cls-1" d="M111.94,27.76a7.75,7.75,0,0,1-3.24-3.1A9.26,9.26,0,0,1,107.55,20V8.78a9.07,9.07,0,0,1,1.15-4.61,7.82,7.82,0,0,1,3.24-3.08A10.4,10.4,0,0,1,116.78,0a10.51,10.51,0,0,1,4.84,1.07,7.81,7.81,0,0,1,3.24,3A8.68,8.68,0,0,1,126,8.58v.2a.54.54,0,0,1-.14.36.44.44,0,0,1-.34.16l-4.71.2c-.32,0-.48-.15-.48-.44V8.54a3.66,3.66,0,0,0-1-2.66,3.81,3.81,0,0,0-5.16,0,3.66,3.66,0,0,0-1,2.66V20.35a3.6,3.6,0,0,0,1,2.64,3.86,3.86,0,0,0,5.16,0,3.6,3.6,0,0,0,1-2.64v-.52c0-.29.16-.44.48-.44l4.71.2c.32,0,.48.09.48.28v.32a9,9,0,0,1-1.15,4.55,7.69,7.69,0,0,1-3.24,3,10.51,10.51,0,0,1-4.84,1.07A10.35,10.35,0,0,1,111.94,27.76Z" transform="translate(0 0.01)"/><path class="cls-1" d="M157.38,31.52a.44.44,0,0,1-.16-.34V27.84a.44.44,0,0,1,.16-.34.63.63,0,0,1,.4-.14h24a.63.63,0,0,1,.4.14.44.44,0,0,1,.16.34v3.34a.44.44,0,0,1-.16.34.63.63,0,0,1-.4.14h-24A.63.63,0,0,1,157.38,31.52Z" transform="translate(0 0.01)"/><g id="Layer_2" data-name="Layer 2"><g id="Layer_1-2" data-name="Layer 1-2"><path class="cls-2" d="M132.11,29.7a.32.32,0,0,1-.27-.16.7.7,0,0,1-.11-.42V25.94a.81.81,0,0,1,.38-.71l17.14-9.54q.27-.19,0-.39L132.11,5.74a.81.81,0,0,1-.38-.71V1.85a.65.65,0,0,1,.19-.49.37.37,0,0,1,.46,0l20.55,11.75a.89.89,0,0,1,.38.78V17a.89.89,0,0,1-.38.78L132.38,29.57Z" transform="translate(0 0.01)"/></g></g></svg>