<svg xmlns="http://www.w3.org/2000/svg" viewBox="0 0 182.38 31.66"><defs><style>.cls-1{fill:#d30e47;stroke:#d30e47;stroke-miterlimit:10;}.cls-2{fill:#020304;}</style></defs><title>Asset 2</title><g id="Layer_2" data-name="Layer 2"><g id="Layer_1-2" data-name="Layer 1"><path class="cls-1" d="M132.11,29.7a.32.32,0,0,1-.27-.16.74.74,0,0,1-.11-.42V25.94a.82.82,0,0,1,.38-.71l17.14-9.54q.27-.2,0-.39L132.11,5.74a.82.82,0,0,1-.38-.71V1.85a.61.61,0,0,1,.19-.49c.13-.11.28-.1.46,0l20.55,11.75a.89.89,0,0,1,.38.78V17a.88.88,0,0,1-.38.78L132.38,29.57Z"/><path class="cls-2" d="M17,5.06a.47.47,0,0,1-.34.14H5.88a.18.18,0,0,0-.2.2v6.29a.18.18,0,0,0,.2.2h6.73a.48.48,0,0,1,.48.48v3.91a.48.48,0,0,1-.48.48H5.88a.18.18,0,0,0-.2.2v6.49a.18.18,0,0,0,.2.2h10.8a.48.48,0,0,1,.48.48V28a.48.48,0,0,1-.48.48H.48a.46.46,0,0,1-.34-.14A.47.47,0,0,1,0,28V.81A.47.47,0,0,1,.14.46.47.47,0,0,1,.48.32h16.2a.48.48,0,0,1,.48.48V4.71A.47.47,0,0,1,17,5.06Z"/><path class="cls-2" d="M20.73,28.39a.47.47,0,0,1-.14-.34V.81a.47.47,0,0,1,.14-.34.47.47,0,0,1,.34-.14h4.75a.57.57,0,0,1,.56.36l7.74,16.08c.05.08.11.11.16.1s.08-.07.08-.18l0-15.88a.47.47,0,0,1,.14-.34.47.47,0,0,1,.34-.14h4.67a.47.47,0,0,1,.34.14A.47.47,0,0,1,40,.81V28a.48.48,0,0,1-.48.48h-4.8a.62.62,0,0,1-.56-.36L26.39,12q-.08-.12-.16-.1c-.05,0-.08.07-.08.18l.08,16a.48.48,0,0,1-.48.48H21.07A.46.46,0,0,1,20.73,28.39Z"/><path class="cls-2" d="M48.39,27.72a8,8,0,0,1-3.24-3.16A9.39,9.39,0,0,1,44,19.87V.81a.47.47,0,0,1,.14-.34.47.47,0,0,1,.34-.14H49.2a.47.47,0,0,1,.34.14.47.47,0,0,1,.14.34V20.15a3.94,3.94,0,0,0,1,2.78,3.7,3.7,0,0,0,5.16,0,3.94,3.94,0,0,0,1-2.78V.81a.47.47,0,0,1,.14-.34.47.47,0,0,1,.34-.14H62a.48.48,0,0,1,.48.48V19.87a9.39,9.39,0,0,1-1.15,4.69,8,8,0,0,1-3.24,3.16,10.92,10.92,0,0,1-9.67,0Z"/><path class="cls-2" d="M70.17,27.86A7.46,7.46,0,0,1,67,25.08,7.58,7.58,0,0,1,65.84,21V19.87a.48.48,0,0,1,.48-.48H71a.48.48,0,0,1,.48.48v.81a3,3,0,0,0,1,2.36,3.93,3.93,0,0,0,2.74.95,3.3,3.3,0,0,0,2.4-.81,2.75,2.75,0,0,0,.82-2.06,2.49,2.49,0,0,0-.52-1.59,5.56,5.56,0,0,0-1.47-1.25q-.95-.58-2.92-1.59a34.22,34.22,0,0,1-3.95-2.26A9.65,9.65,0,0,1,67,11.73a7.09,7.09,0,0,1-1.09-4A7.09,7.09,0,0,1,68.3,2.1,9.38,9.38,0,0,1,74.67,0a10.76,10.76,0,0,1,4.79,1,7.86,7.86,0,0,1,3.26,2.88,7.85,7.85,0,0,1,1.17,4.27V9a.48.48,0,0,1-.48.48H78.78A.48.48,0,0,1,78.29,9V8.26a3.22,3.22,0,0,0-1-2.42,3.74,3.74,0,0,0-2.7-1,3.28,3.28,0,0,0-2.28.74,2.65,2.65,0,0,0-.83,2.08A2.72,2.72,0,0,0,72,9.31a5,5,0,0,0,1.49,1.31q1,.63,3,1.63l.89.48A41.8,41.8,0,0,1,81,15a8.3,8.3,0,0,1,2.2,2.38,6.5,6.5,0,0,1,.89,3.49,7.31,7.31,0,0,1-2.5,5.8A9.71,9.71,0,0,1,75,28.85,11.08,11.08,0,0,1,70.17,27.86Z"/><path class="cls-2" d="M104.47,5.06a.47.47,0,0,1-.34.14H93.32a.18.18,0,0,0-.2.2v6.29a.18.18,0,0,0,.2.2h6.73a.48.48,0,0,1,.48.48v3.91a.48.48,0,0,1-.48.48H93.32a.18.18,0,0,0-.2.2v6.49a.18.18,0,0,0,.2.2h10.8a.48.48,0,0,1,.48.48V28a.48.48,0,0,1-.48.48H87.92a.48.48,0,0,1-.48-.48V.81a.47.47,0,0,1,.14-.34.47.47,0,0,1,.34-.14h16.2a.47.47,0,0,1,.34.14.47.47,0,0,1,.14.34V4.71A.47.47,0,0,1,104.47,5.06Z"/><path class="cls-2" d="M111.94,27.76a7.77,7.77,0,0,1-3.24-3.1A9.27,9.27,0,0,1,107.55,20V8.78a9.08,9.08,0,0,1,1.15-4.61,7.8,7.8,0,0,1,3.24-3.08A10.34,10.34,0,0,1,116.78,0a10.51,10.51,0,0,1,4.84,1.07,7.79,7.79,0,0,1,3.24,3A8.67,8.67,0,0,1,126,8.58v.2a.54.54,0,0,1-.14.36.44.44,0,0,1-.34.16l-4.71.2q-.48,0-.48-.44V8.54a3.68,3.68,0,0,0-1-2.66,3.81,3.81,0,0,0-5.16,0,3.68,3.68,0,0,0-1,2.66V20.35a3.61,3.61,0,0,0,1,2.64,3.86,3.86,0,0,0,5.16,0,3.61,3.61,0,0,0,1-2.64v-.52q0-.44.48-.44l4.71.2c.32,0,.48.09.48.28v.32a8.89,8.89,0,0,1-1.15,4.55,7.71,7.71,0,0,1-3.24,3,10.5,10.5,0,0,1-4.84,1.07A10.35,10.35,0,0,1,111.94,27.76Z"/><path class="cls-2" d="M157.38,31.52a.43.43,0,0,1-.16-.34V27.84a.43.43,0,0,1,.16-.34.59.59,0,0,1,.4-.14h24a.59.59,0,0,1,.4.14.44.44,0,0,1,.16.34v3.34a.44.44,0,0,1-.16.34.59.59,0,0,1-.4.14h-24A.59.59,0,0,1,157.38,31.52Z"/></g></g></svg>